# xmcd
#
# Track frame offsets: 
#        150
#        14315
#        26767
#        41085
#        55292
#        69050
#        84317
#        99400
#        114602
#        130180
#        145792
#        160367
#        175140
#        190162
#        205960
#        220022
#        234675
#        249402
#        264035
#
# Disc length: 3686 seconds
#
# Revision: 0
# Processed by: cddbd v1.5.2PL0 Copyright (c) Steve Scherf et al.
# Submitted via: ExactAudioCopy v0.95b3
#
DISCID=fe0e6413
DTITLE=Jimmie Lunceford  - Volume 2 1934 Complete Edition
DYEAR=1900
DGENRE=
TTITLE0=Nana
TTITLE1=Miss Otis Regrets
TTITLE2=Unsophisticated Sue
TTITLE3=Stardust
TTITLE4=Stardust
TTITLE5=Dream Of You
TTITLE6=Stomp It Off
TTITLE7=Call It Anything (It Wasn't Love)
TTITLE8=Because You're You
TTITLE9=Because You're You
TTITLE10=Chillun
TTITLE11=Solitude
TTITLE12=Rain
TTITLE13=Since My Best Gal Turned Me Down
TTITLE14=Jealous
TTITLE15=Rhythm Is Our Business
TTITLE16=Rhythm Is Our Business
TTITLE17=I'm Walking Through Heaven With You
TTITLE18=Shake Your Head From Side To Side
EXTD=
EXTT0=
EXTT1=
EXTT2=
EXTT3=
EXTT4=
EXTT5=
EXTT6=
EXTT7=
EXTT8=
EXTT9=
EXTT10=
EXTT11=
EXTT12=
EXTT13=
EXTT14=
EXTT15=
EXTT16=
EXTT17=
EXTT18=
PLAYORDER=
